<svg xmlns="http://www.w3.org/2000/svg" width="40" height="13.927" viewBox="0 0 32 13.927" fill="#fff">
  <path id="Path_5" data-name="Path 5" d="M30.815,178.221c-.587-.2-4.673-1.089-4.673-1.089s-7.574-4.307-8.483-4.307l-7.145,0c-1.524,0-2.8,1.161-4.271,2.505a28.243,28.243,0,0,1-2.307,1.95l-3.15.419A1.128,1.128,0,0,0,0,178.775v3.609a1.128,1.128,0,0,0,1.128,1.128H3.293a3.546,3.546,0,0,0,7.066,0H20.7a3.546,3.546,0,0,0,7.066,0H29.54c1.409,0,2.1-.609,2.271-1.18C32.248,180.887,31.933,178.594,30.815,178.221ZM6.826,185.041A1.838,1.838,0,1,1,8.663,183.2,1.84,1.84,0,0,1,6.826,185.041Zm6.822-7.91H7.484c.446-.352.858-.726,1.238-1.072,1-.91,1.86-1.7,2.891-1.7h2.035v2.769Zm1.5-2.769h1.784c.849,0,4.295,2,5.588,2.77H15.148v-2.769Zm9.08,10.679a1.838,1.838,0,1,1,1.838-1.838A1.84,1.84,0,0,1,24.228,185.041Z" transform="translate(0 -172.824)"/>
</svg>
