<?xml version="1.0" standalone="no"?>
<!DOCTYPE svg PUBLIC "-//W3C//DTD SVG 20010904//EN"
 "http://www.w3.org/TR/2001/REC-SVG-20010904/DTD/svg10.dtd">
<svg version="1.0" xmlns="http://www.w3.org/2000/svg"
 width="512.000000pt" height="512.000000pt" viewBox="0 0 512.000000 512.000000"
 preserveAspectRatio="xMidYMid meet">
<metadata>
Created by potrace 1.14, written by Peter Selinger 2001-2017
</metadata>
<g transform="translate(0.000000,512.000000) scale(0.100000,-0.100000)"
fill="#000000" stroke="none">
<path d="M2505 5069 c-31 -17 -995 -981 -1011 -1011 -30 -57 -8 -135 46 -163
23 -12 69 -15 225 -15 l195 0 0 -280 0 -280 -360 0 -360 0 0 194 c0 185 -1
195 -23 227 -28 42 -81 62 -129 48 -24 -7 -159 -135 -526 -502 -271 -270 -500
-504 -508 -519 -18 -34 -18 -72 0 -106 8 -15 239 -251 513 -525 l498 -497 51
0 c29 0 59 7 72 16 47 32 52 60 52 269 l0 195 348 0 c257 0 351 -3 360 -12 9
-9 12 -254 12 -1040 l0 -1028 600 0 600 0 0 435 c0 421 1 435 20 445 13 7 128
8 360 4 l340 -7 0 -186 c0 -209 8 -239 68 -274 73 -42 58 -55 610 496 529 529
531 531 511 600 -7 23 -143 166 -507 530 -545 546 -535 537 -610 500 -64 -31
-72 -61 -72 -275 l0 -188 -360 0 -360 0 0 880 0 880 195 0 c156 0 202 3 225
15 54 28 76 106 46 163 -18 33 -982 995 -1013 1011 -27 14 -82 14 -108 0z
m125 -818 c41 -29 52 -80 48 -233 -3 -120 -6 -140 -24 -165 -45 -61 -143 -61
-188 0 -19 26 -21 42 -21 187 0 145 2 161 21 187 38 51 110 62 164 24z m0
-880 c14 -10 30 -33 37 -52 11 -31 19 -249 9 -249 -2 0 -28 16 -57 35 -29 20
-81 52 -117 72 l-64 36 5 55 c7 66 31 103 78 119 39 13 74 8 109 -16z m-1660
-549 c22 -10 42 -32 54 -56 17 -36 18 -43 5 -79 -24 -67 -54 -82 -169 -82
-115 0 -145 15 -169 82 -13 36 -12 43 5 79 26 54 70 74 164 74 51 0 86 -6 110
-18z m604 3 c61 -29 84 -107 49 -166 -27 -45 -68 -59 -177 -59 -114 0 -157 14
-186 62 -24 40 -25 69 -5 109 29 54 67 69 183 69 72 0 114 -5 136 -15z m524
-30 c86 -27 127 -59 137 -106 9 -41 -11 -95 -46 -120 -37 -26 -87 -23 -209 14
-104 32 -130 56 -130 125 0 55 19 88 64 108 37 17 79 12 184 -21z m422 -321
c31 -27 86 -126 110 -198 26 -80 -27 -156 -108 -156 -49 0 -87 24 -107 67 -9
21 -33 71 -52 110 -28 57 -34 80 -29 105 18 90 119 128 186 72z m1250 -849
c16 -8 36 -25 44 -37 23 -32 20 -104 -4 -138 -31 -44 -65 -52 -204 -48 l-126
3 -32 33 c-28 28 -33 39 -33 81 0 52 26 93 70 111 37 16 253 12 285 -5z m610
-1 c15 -9 35 -29 44 -44 32 -56 12 -130 -44 -164 -39 -23 -201 -23 -240 0 -78
47 -79 159 -1 207 37 23 202 24 241 1z m-1270 -39 c34 -18 60 -62 60 -102 0
-57 -31 -88 -153 -147 -63 -31 -123 -56 -132 -56 -31 0 -81 30 -98 59 -21 36
-22 99 -1 129 33 47 200 131 262 132 18 0 46 -7 62 -15z m-428 -484 c33 -37
35 -66 12 -190 -23 -117 -32 -140 -68 -162 -62 -38 -141 -17 -170 46 -20 40
-17 89 11 208 24 106 61 140 143 133 34 -3 51 -11 72 -35z m-38 -660 c31 -31
31 -32 31 -141 0 -109 0 -110 -31 -141 -43 -42 -97 -49 -144 -17 -53 36 -61
60 -58 170 3 87 5 99 28 123 33 36 57 46 104 41 27 -3 49 -14 70 -35z"/>
</g>
</svg>
